<svg width="62" height="48" viewBox="0 0 62 48" fill="none" xmlns="http://www.w3.org/2000/svg">
<path d="M21 25.1828C18.5449 26.8196 15.6308 27.6035 12.6972 27.4163C9.76369 27.229 6.96983 26.0808 4.73708 24.1448C2.50434 22.2088 0.953812 19.59 0.319385 16.6834C-0.315042 13.7769 0.00104283 10.7402 1.21996 8.03151C2.43888 5.3228 4.49452 3.08897 7.0768 1.66697C9.65908 0.244961 12.6279 -0.288092 15.5356 0.148215C18.4432 0.584523 21.1318 1.96653 23.196 4.08576C25.2601 6.20499 26.5878 8.94652 26.9787 11.8968C28.2151 18.0475 28.6961 25.4401 26.2775 32.1329C23.6828 39.3025 17.931 45.1822 7.62998 47.9129C6.77158 48.1126 5.8701 47.9659 5.1167 47.5039C4.36331 47.0418 3.81725 46.3008 3.59431 45.4379C3.37138 44.5749 3.4891 43.658 3.92251 42.8815C4.35592 42.105 5.07095 41.53 5.91596 41.2784C14.2489 39.0692 18.1444 34.6577 19.916 29.7728C20.4411 28.3148 20.7967 26.7746 21 25.1828Z" fill="#1665C2"/>
<path d="M55 25.1828C52.5449 26.8196 49.6308 27.6035 46.6972 27.4163C43.7637 27.229 40.9698 26.0808 38.7371 24.1448C36.5043 22.2088 34.9538 19.59 34.3194 16.6834C33.685 13.7769 34.001 10.7402 35.22 8.03151C36.4389 5.3228 38.4945 3.08897 41.0768 1.66697C43.6591 0.244961 46.6279 -0.288092 49.5356 0.148215C52.4432 0.584523 55.1318 1.96653 57.196 4.08576C59.2601 6.20499 60.5878 8.94652 60.9787 11.8968C62.2151 18.0475 62.6961 25.4401 60.2775 32.1329C57.6828 39.3025 51.931 45.1822 41.63 47.9129C40.7716 48.1126 39.8701 47.9659 39.1167 47.5039C38.3633 47.0418 37.8172 46.3008 37.5943 45.4379C37.3714 44.5749 37.4891 43.658 37.9225 42.8815C38.3559 42.105 39.0709 41.53 39.916 41.2784C48.2489 39.0692 52.1444 34.6577 53.916 29.7728C54.4411 28.3148 54.7967 26.7746 55 25.1828Z" fill="#1665C2"/>
</svg>
