<svg width="34" height="32" viewBox="0 0 34 32" fill="none" xmlns="http://www.w3.org/2000/svg">
<path fill-rule="evenodd" clip-rule="evenodd" d="M29.9986 3.50099C31.19 4.64326 31.19 6.49525 29.9986 7.63752L21.0969 16.1723L29.9986 24.707C31.7687 27.5136 28.394 30.7884 25.6842 28.8435L16.7825 20.3088L7.88079 28.8435C6.6894 29.9858 4.75778 29.9858 3.56639 28.8435C2.375 27.7012 2.375 25.8493 3.56639 24.707L12.4681 16.1723L3.56639 7.63752C2.08399 4.973 5.0009 2.02825 7.73677 3.42734L7.88079 3.50099L16.7825 12.0357L25.6842 3.50099C26.8756 2.35872 28.8072 2.35872 29.9986 3.50099Z" fill="black"/>
<path fill-rule="evenodd" clip-rule="evenodd" d="M25.5712 3.02811C27.0418 1.6573 29.4185 1.6573 30.8891 3.02811C32.3703 4.4088 32.3703 6.65506 30.8891 8.03575L22.3451 16L30.8891 23.9642L30.4207 24.4261L30.9913 24.0859C32.08 25.7642 31.5737 27.5934 30.4057 28.6879C29.2333 29.7866 27.3259 30.2043 25.6442 29.0309L26.0395 28.51L25.5712 28.9719L17 20.9823L8.42881 28.9719C6.95821 30.3427 4.58151 30.3427 3.1109 28.9719C1.6297 27.5912 1.6297 25.3449 3.1109 23.9642L11.6549 16L3.1109 8.03575L3.57926 7.57387L2.99021 7.88374C1.16552 4.6951 4.75594 1.17111 8.12351 2.84541L8.35775 2.96186L17 11.0177L25.5712 3.02811ZM4.1238 7.183L13.5827 16L4.04762 24.888C3.10916 25.7628 3.10916 27.1734 4.04762 28.0481C4.99668 28.9328 6.54304 28.9328 7.4921 28.0481L17 19.1854L26.4718 28.0145C27.5321 28.7303 28.6958 28.4887 29.4665 27.7665C30.2352 27.0461 30.5468 25.9045 29.8905 24.8303L20.4173 16L29.9524 7.11199C30.8908 6.23722 30.8908 4.82665 29.9524 3.95187C29.0033 3.06721 27.457 3.06721 26.5079 3.95187L17 12.8146L7.56316 4.01811L7.50491 3.98915C5.34451 2.91504 3.043 5.13239 4.1238 7.183Z" fill="white" stroke="white" stroke-width="4" stroke-linecap="round"/>
</svg>
