<svg width="15" height="16" viewBox="0 0 15 16" fill="none" xmlns="http://www.w3.org/2000/svg">
<path d="M13.2856 7.35125C13.5818 7.73875 13.5818 8.26188 13.2856 8.64875C12.3524 9.86688 10.1137 12.375 7.49995 12.375C4.8862 12.375 2.64745 9.86688 1.71432 8.64875C1.57019 8.46321 1.49194 8.23495 1.49194 8C1.49194 7.76505 1.57019 7.53679 1.71432 7.35125C2.64745 6.13312 4.8862 3.625 7.49995 3.625C10.1137 3.625 12.3524 6.13312 13.2856 7.35125V7.35125Z" stroke="white" stroke-linecap="round" stroke-linejoin="round"/>
<path d="M7.5 9.875C8.53553 9.875 9.375 9.03553 9.375 8C9.375 6.96447 8.53553 6.125 7.5 6.125C6.46447 6.125 5.625 6.96447 5.625 8C5.625 9.03553 6.46447 9.875 7.5 9.875Z" stroke="white" stroke-linecap="round" stroke-linejoin="round"/>
</svg>
