<svg width="17" height="18" viewBox="0 0 17 18" fill="none" xmlns="http://www.w3.org/2000/svg">
<g clip-path="url(#clip0_407:204)">
<path d="M3.1041 0C1.38456 0 0 1.46601 0 3.28669V14.7133C0 16.534 1.38456 18 3.1041 18H8.95317V10.9631H7.19579V8.42963H8.95317V6.26513C8.95317 4.56458 9.99151 3.00319 12.3834 3.00319C13.3519 3.00319 14.068 3.10163 14.068 3.10163L14.0117 5.46752C14.0117 5.46752 13.2814 5.46021 12.4844 5.46021C11.6218 5.46021 11.4835 5.88101 11.4835 6.57959V8.42965H14.0803L13.9671 10.9632H11.4835V18H13.8959C15.6154 18 17 16.534 17 14.7133V3.28671C17 1.46603 15.6154 1.8e-05 13.8959 1.8e-05H3.10408L3.1041 0Z" fill="white"/>
</g>
<defs>
<clipPath id="clip0_407:204">
<rect width="17" height="18" fill="white"/>
</clipPath>
</defs>
</svg>
