<svg width="17" height="18" viewBox="0 0 17 18" fill="none" xmlns="http://www.w3.org/2000/svg">
<path fill-rule="evenodd" clip-rule="evenodd" d="M11.1734 0.670822C10.2341 0.923086 9.65405 1.25325 8.99382 1.91151C7.80634 3.09578 7.3239 4.87494 7.77315 6.41331L7.9845 7.13677L3.99225 11.0707C1.79654 13.2343 0 15.0621 0 15.1325C0 15.2473 1.36761 16.6603 2.06261 17.2636L2.33506 17.5L3.12557 16.7188L3.91609 15.9375L4.43453 16.4212C4.71983 16.6873 4.98198 16.9325 5.01737 16.966C5.05263 16.9996 5.20704 17.1332 5.36047 17.2629L5.6394 17.4985L6.18698 16.9626L6.73456 16.4268L7.25961 16.9406L7.78454 17.4545L8.38881 16.8427L8.99309 16.2309L7.65132 14.8887L6.30955 13.5466L8.34951 11.5176L10.3895 9.4886L10.9716 9.68628C11.9714 10.026 13.4896 9.89642 14.4727 9.38737C15.0503 9.08834 15.8266 8.3683 16.225 7.76218C18 5.06188 16.5854 1.4955 13.4128 0.671677C12.5322 0.442978 12.0225 0.442856 11.1734 0.670822ZM13.018 3.22326C14.7685 3.84574 14.9317 6.27204 13.2774 7.07755C12.3481 7.52994 11.3802 7.33372 10.6933 6.55349C10.244 6.04334 10.108 5.54761 10.2174 4.81975C10.3172 4.15625 10.9094 3.46026 11.5712 3.22851C12.1821 3.01458 12.4289 3.01373 13.018 3.22326Z" fill="white"/>
</svg>
