<svg width="160" height="79" viewBox="0 0 160 79" fill="none" xmlns="http://www.w3.org/2000/svg">
<path d="M74.3893 6.35473C74.3893 9.22927 72.916 10.9055 70.5817 10.9055C68.2474 10.9055 66.761 9.27838 66.761 6.36783C66.761 3.50638 68.2474 1.81702 70.5817 1.81702C72.916 1.81702 74.3893 3.4409 74.3893 6.35473ZM68.5158 6.36455C68.5158 8.70871 69.3114 9.62869 70.5817 9.62869C71.8815 9.62869 72.6345 8.70871 72.6345 6.35145C72.6345 4.02039 71.8913 3.08731 70.5817 3.08731C69.2852 3.08731 68.5158 4.02039 68.5158 6.36455Z" fill="white"/>
<path d="M81.4483 10.1722V11.1806H79.8212V10.1591C77.2511 10.0314 75.7385 8.78404 75.7385 6.33839C75.7385 3.75523 77.3657 2.55696 79.8212 2.46857V1.54858H81.4483V2.48166C84.0315 2.59625 85.544 3.84363 85.544 6.30238C85.544 8.87571 83.9169 10.0838 81.4483 10.1722ZM79.8834 9.06233V3.56862C78.2071 3.68321 77.4377 4.51479 77.4377 6.34166C77.441 8.12925 78.2333 8.97393 79.8834 9.06233ZM83.8416 6.30238C83.8416 4.49842 83.046 3.66684 81.3828 3.57844V9.06233C83.0722 8.95101 83.8416 8.14234 83.8416 6.30238Z" fill="white"/>
<path d="M89.0372 10.7156H87.374V2.00684H89.0372V10.7156Z" fill="white"/>
<path d="M97.3925 2.73695L96.5478 3.71914C96.0436 3.31645 95.5263 3.10036 94.9338 3.10036C93.7224 3.10036 92.7926 3.98106 92.7926 6.33831C92.7926 8.63336 93.6995 9.56644 94.9338 9.56644C95.69 9.56644 96.2073 9.23904 96.7115 8.85926L97.494 9.84145C96.9636 10.3849 96.0567 10.8989 94.8716 10.8989C92.6158 10.8989 91.041 9.29798 91.041 6.33504C91.041 3.41139 92.7042 1.81042 94.8486 1.81042C95.9552 1.81697 96.6755 2.14437 97.3925 2.73695Z" fill="white"/>
<path d="M72.3727 18.4781H68.9056V25.838H67.2424V17.1293H72.5724L72.3727 18.4781Z" fill="white"/>
<path d="M78.9761 18.3668H75.7611V20.7994H78.5603V22.0337H75.7611V24.5906H79.202V25.838H74.0979V17.1293H79.1529L78.9761 18.3668Z" fill="white"/>
<path d="M85.9855 21.9453H82.8851V25.8413H81.2219V17.1326H82.8851V20.6226H85.9855V17.1326H87.6618V25.8413H85.9855V21.9453Z" fill="white"/>
<path d="M94.9988 18.3668H91.7838V20.7994H94.583V22.0337H91.7838V24.5906H95.2247V25.838H90.1206V17.1293H95.1756L94.9988 18.3668Z" fill="white"/>
<path d="M103.341 19.9023C103.341 21.906 101.891 22.7998 99.9263 22.7998H98.9049V25.838H97.2417V17.1293H99.8118C102.005 17.1293 103.341 18.0263 103.341 19.9023ZM101.603 19.9023C101.603 18.8055 100.935 18.3505 99.8019 18.3505H98.9081V21.5524H99.8019C100.909 21.5557 101.603 21.1759 101.603 19.9023Z" fill="white"/>
<path d="M108.445 23.8245H105.557L105.014 25.8413H103.289L105.999 17.1326H108.052L110.75 25.8413H108.985L108.445 23.8245ZM108.105 22.5641L106.995 18.4061L105.885 22.5641H108.105Z" fill="white"/>
<path d="M118.404 17.1293V25.838H116.741V18.4389H114.521L114.142 21.7521C113.801 24.715 113.323 25.5826 111.634 26.0246L111.244 24.8034C112.164 24.4499 112.292 23.8966 112.544 21.7423L113.087 17.1293H118.404Z" fill="white"/>
<path d="M126.989 22.9537C126.989 24.9966 125.565 25.8413 123.587 25.8413H120.89V17.1326H122.553V20.2068H123.587C125.702 20.2068 126.989 21.0875 126.989 22.9537ZM125.237 22.9799C125.237 21.87 124.632 21.4182 123.499 21.4182H122.553V24.5939H123.535C124.556 24.5907 125.237 24.2142 125.237 22.9799Z" fill="white"/>
<path d="M133.468 21.9453H130.367V25.8413H128.704V17.1326H130.367V20.6226H133.468V17.1326H135.144V25.8413H133.468V21.9453Z" fill="white"/>
<path d="M144.747 21.4803C144.747 24.3549 143.274 26.0311 140.939 26.0311C138.605 26.0311 137.119 24.404 137.119 21.4934C137.119 18.632 138.605 16.9426 140.939 16.9426C143.274 16.9426 144.747 18.5665 144.747 21.4803ZM138.874 21.4902C138.874 23.8343 139.666 24.7543 140.939 24.7543C142.236 24.7543 142.995 23.8343 142.995 21.4771C142.995 19.146 142.252 18.2129 140.939 18.2129C139.643 18.2162 138.874 19.146 138.874 21.4902Z" fill="white"/>
<path d="M151.88 18.4781H148.413V25.838H146.75V17.1293H152.083L151.88 18.4781Z" fill="white"/>
<path d="M160 21.4803C160 24.3549 158.527 26.0311 156.192 26.0311C153.858 26.0311 152.372 24.404 152.372 21.4934C152.372 18.632 153.858 16.9426 156.192 16.9426C158.527 16.9426 160 18.5665 160 21.4803ZM154.126 21.4902C154.126 23.8343 154.919 24.7543 156.192 24.7543C157.489 24.7543 158.248 23.8343 158.248 21.4771C158.248 19.146 157.505 18.2129 156.192 18.2129C154.896 18.2162 154.126 19.146 154.126 21.4902Z" fill="white"/>
<path d="M73.6332 40.967H71.97V33.581H68.9089V40.967H67.2424V32.2583H73.6332V40.967Z" fill="white"/>
<path d="M82.2171 35.0281C82.2171 37.0317 80.7667 37.9255 78.8023 37.9255H77.7809V40.9637H76.1177V32.255H78.6877C80.8813 32.255 82.2171 33.1521 82.2171 35.0281ZM80.4753 35.0281C80.4753 33.9313 79.8074 33.4762 78.6746 33.4762H77.7809V36.6781H78.6746C79.7845 36.6814 80.4753 36.3016 80.4753 35.0281Z" fill="white"/>
<path d="M91.1523 36.6061C91.1523 39.4806 89.679 41.1569 87.3446 41.1569C85.0103 41.1569 83.5239 39.5297 83.5239 36.6192C83.5239 33.7577 85.0103 32.0684 87.3446 32.0684C89.679 32.0684 91.1523 33.6922 91.1523 36.6061ZM85.2788 36.6159C85.2788 38.96 86.0711 39.88 87.3446 39.88C88.6411 39.88 89.3974 38.96 89.3974 36.6028C89.3974 34.2717 88.6542 33.3387 87.3446 33.3387C86.0481 33.3387 85.2788 34.2717 85.2788 36.6159Z" fill="white"/>
<path d="M97.2547 36.2656L99.7625 40.967H97.8964L95.8534 37.0481H94.8058V40.967H93.1426V32.2583H94.8058V35.7745H95.8763L97.844 32.2583H99.5334L97.2547 36.2656Z" fill="white"/>
<path d="M105.018 38.4821C104.301 40.3613 103.443 40.9408 101.639 41.1536L101.413 39.9947C102.536 39.8179 103.04 39.5167 103.43 38.6196H102.876L100.143 32.255H101.868L103.924 37.6505L105.738 32.255H107.44L105.018 38.4821Z" fill="white"/>
<path d="M114.849 35.0281C114.849 37.0317 113.399 37.9255 111.434 37.9255H110.413V40.9637H108.75V32.255H111.32C113.513 32.255 114.849 33.1521 114.849 35.0281ZM113.11 35.0281C113.11 33.9313 112.443 33.4762 111.31 33.4762H110.416V36.6781H111.31C112.416 36.6814 113.11 36.3016 113.11 35.0281Z" fill="white"/>
<path d="M123.787 36.6061C123.787 39.4806 122.314 41.1569 119.979 41.1569C117.645 41.1569 116.159 39.5297 116.159 36.6192C116.159 33.7577 117.645 32.0684 119.979 32.0684C122.314 32.0684 123.787 33.6922 123.787 36.6061ZM117.914 36.6159C117.914 38.96 118.706 39.88 119.979 39.88C121.276 39.88 122.035 38.96 122.035 36.6028C122.035 34.2717 121.292 33.3387 119.979 33.3387C118.683 33.3387 117.914 34.2717 117.914 36.6159Z" fill="white"/>
<path d="M131.877 35.0281C131.877 37.0317 130.426 37.9255 128.462 37.9255H127.441V40.9637H125.777V32.255H128.347C130.541 32.255 131.877 33.1521 131.877 35.0281ZM130.138 35.0281C130.138 33.9313 129.47 33.4762 128.338 33.4762H127.444V36.6781H128.338C129.444 36.6814 130.138 36.3016 130.138 35.0281Z" fill="white"/>
<path d="M136.994 38.9503H134.106L133.563 40.967H131.837L134.548 32.2583H136.601L139.299 40.967H137.534L136.994 38.9503ZM136.657 37.6898L135.547 33.5319L134.437 37.6898H136.657Z" fill="white"/>
<path d="M24.1275 71.7325C23.7411 71.5393 23.2861 71.4869 22.8539 71.5C22.0976 71.978 21.6262 72.6132 21.266 73.4448C20.9648 74.1388 20.3493 74.6103 19.6192 74.7904C18.8728 74.9737 18.0805 74.8362 17.4158 74.463C10.6224 70.6652 5.02717 65.5218 1.57641 58.4729C1.22938 57.7625 0.92817 56.9047 0.990375 56.1059C1.05585 55.2448 1.53713 54.6064 2.3458 54.2954C2.90237 54.0793 3.47531 53.932 4.03516 53.729C4.13993 53.6897 4.24797 53.6504 4.35601 53.6013C2.38508 52.3441 0.103131 50.4616 0.00163859 48.1141C-0.031101 47.348 0.430528 46.8406 1.04931 46.4706C1.46837 46.2185 1.98239 46.0221 2.36544 45.734C2.75504 45.4426 2.92856 44.9613 3.21012 44.5717C3.78961 43.7729 4.63757 43.5109 5.58374 43.4029L5.60994 43.3996H5.63613C6.51682 43.3669 7.27311 43.6288 7.84278 44.3163C8.00975 44.5226 8.14071 44.7387 8.28476 44.958C8.31423 45.0071 8.40263 45.1414 8.45501 45.1905C8.61216 45.1741 8.97557 44.9318 9.07706 44.8565L10.4128 43.9104L10.0887 45.5146C9.89883 46.4509 9.45684 47.3316 8.53031 47.7147C8.48448 47.7343 8.43864 47.7507 8.39281 47.7671C8.63508 47.8849 8.88063 47.9995 9.11963 48.1076C9.93812 48.4808 10.7664 48.8377 11.5849 49.2109C12.8356 49.7806 14.0764 50.9134 14.4987 52.2491C14.98 53.765 14.2336 54.9305 12.8552 55.4871L12.8454 55.5427L12.446 55.6311L12.3117 55.6737L12.2921 55.6639C11.3983 55.8669 10.2459 56.2336 9.74495 57.0586C10.4423 58.0735 11.215 59.0492 12.0105 59.9888C12.9534 61.1052 13.9454 62.1823 14.9702 63.2235C16.1554 64.4283 17.4191 65.5774 18.7222 66.6513C19.1936 67.0409 19.6716 67.4207 20.1627 67.7874C20.2282 67.8365 20.2969 67.8856 20.3624 67.938C20.4344 67.6891 20.5065 67.4403 20.5818 67.1915C20.7291 66.7037 20.9648 65.895 21.3381 65.489C21.7637 64.8113 22.5167 64.3661 23.273 64.15C24.1307 63.9044 25.0835 63.9175 25.9183 64.2318C26.655 64.5069 27.4178 65.0503 27.9809 65.6004C28.8452 66.4483 29.0482 66.576 29.081 67.5811C29.1072 68.3276 28.9205 68.93 28.7503 69.6404C28.6423 70.089 28.5801 70.4818 28.6193 70.9074C29.9027 71.0417 31.2385 71.0482 32.5154 71.0122H32.5317H32.5514C33.8315 71.0482 35.164 71.0417 36.4474 70.9074C36.4867 70.4818 36.4245 70.089 36.3164 69.6404C36.1462 68.9332 35.9596 68.3276 35.9858 67.5811C36.0185 66.6611 36.3033 66.3665 37.0858 65.6004C37.6489 65.0503 38.4118 64.5069 39.1484 64.2318C39.9865 63.9175 40.936 63.9044 41.7938 64.15C42.5501 64.3661 43.3031 64.8081 43.7287 65.489C44.1019 65.895 44.3376 66.7004 44.485 67.1915C44.5603 67.4403 44.629 67.6891 44.7043 67.938C44.7731 67.8889 44.8386 67.8365 44.9073 67.7874C45.3984 67.424 45.8764 67.0409 46.3479 66.6513C47.6542 65.5774 48.9146 64.4283 50.0998 63.2235C51.1246 62.1823 52.1166 61.1052 53.0595 59.9888C53.855 59.0492 54.6277 58.0735 55.3251 57.0586C54.8241 56.2336 53.6717 55.8669 52.7779 55.6639L52.7583 55.6737L52.624 55.6311L52.2246 55.5427L52.2148 55.4871C50.8365 54.9305 50.09 53.765 50.5713 52.2491C50.9936 50.9134 52.2377 49.7773 53.4851 49.2109C54.3036 48.8377 55.1319 48.4841 55.9504 48.1076C56.1894 47.9995 56.4349 47.8849 56.6772 47.7671C56.6314 47.7507 56.5855 47.7343 56.5397 47.7147C55.6132 47.3349 55.1712 46.4509 54.9813 45.5146L54.6572 43.9104L55.9929 44.8565C56.0879 44.9253 56.3694 45.1152 56.5331 45.1708C56.579 45.0988 56.6281 44.994 56.6543 44.9449C56.7722 44.7125 56.8867 44.4898 57.0439 44.2803C57.2469 44.0086 57.4826 43.8089 57.7478 43.6648C59.2276 43.38 60.7991 43.1082 61.8599 44.5717C62.1414 44.9613 62.3117 45.4393 62.7046 45.734C63.0909 46.0221 63.6016 46.2152 64.024 46.4706C64.6428 46.8438 65.1044 47.348 65.0716 48.1141C64.9701 50.4648 62.6882 52.3474 60.7173 53.6013C60.8253 53.6471 60.9334 53.6897 61.0381 53.729C61.598 53.932 62.1709 54.0793 62.7275 54.2954C63.5362 54.6064 64.0174 55.2448 64.0829 56.1059C64.1451 56.9047 63.8439 57.7625 63.4969 58.4729C60.0494 65.5218 54.4509 70.6652 47.6574 74.463C46.9895 74.8362 46.2005 74.9737 45.4541 74.7904C44.724 74.6103 44.1117 74.1388 43.8073 73.4448C43.4438 72.6132 42.9724 71.978 42.2194 71.5C41.7872 71.4869 41.3354 71.5393 40.9491 71.7325C40.8476 72.6787 40.8541 73.6445 41.0506 74.5776C41.4893 76.6827 39.9931 77.7435 38.1531 78.1953C36.4016 78.6275 34.3357 78.6078 32.5317 78.6078C30.7278 78.6078 28.6619 78.6275 26.9103 78.1953C25.0704 77.7435 23.5742 76.6827 24.0129 74.5776C24.2191 73.6412 24.229 72.6787 24.1275 71.7325Z" fill="#FFE200"/>
<path d="M32.2629 66.1013C17.4221 61.7371 6.7064 47.9537 6.7064 32.3991L6.70312 0H58.3728L58.3695 32.3991C58.3662 47.7409 47.5916 61.999 32.7999 66.1046L32.5314 66.1799L32.2629 66.1013Z" fill="#FFED00"/>
<path d="M57.3977 32.3991L57.401 0.97229H7.67603L7.6793 32.3991C7.66948 47.5248 18.1167 60.9251 32.5385 65.1681C46.9177 61.1739 57.4042 47.2989 57.3977 32.3991Z" fill="#0071BB"/>
<path d="M33.4222 18.0394C33.2716 18.1606 33.1275 18.2948 32.9933 18.4487C32.9376 18.5109 32.8853 18.5764 32.8296 18.6451V17.0278L34.7252 16.9852V17.4338C34.5026 17.4796 34.2865 17.5451 34.077 17.6367C33.8511 17.7448 33.6285 17.8757 33.4222 18.0394ZM32.3778 18.6484C32.3254 18.5796 32.2698 18.5142 32.2174 18.452C32.0831 18.3014 31.9391 18.1639 31.7885 18.0427C31.5822 17.879 31.3596 17.7448 31.1304 17.6433C30.9209 17.5516 30.7048 17.4829 30.4822 17.437V16.9885L32.3778 17.0311V18.6484ZM30.4822 17.8954V53.9286C30.492 56.3186 30.7736 59.6777 32.3778 61.5962L32.6103 61.8516L32.8296 61.5962C34.4338 59.6744 34.7154 56.3186 34.7252 53.9286V17.8954C34.5615 17.9347 34.4011 17.9903 34.244 18.0591C34.0508 18.1442 33.8675 18.2555 33.6972 18.3898C33.5237 18.5273 33.3633 18.6877 33.2127 18.8776C33.0719 19.0544 32.9442 19.2574 32.8296 19.4767V58.7446C32.8296 58.8952 32.3778 58.8952 32.3778 58.7446V19.48C32.2632 19.2574 32.1355 19.0576 31.9947 18.8809C31.8441 18.691 31.6804 18.5273 31.5102 18.393C31.34 18.2555 31.1566 18.1475 30.9635 18.0591C30.8096 17.9903 30.6459 17.9347 30.4822 17.8954Z" fill="#F4F4F4"/>
<path d="M34.1487 5.63118C34.1487 5.39218 34.1061 5.16627 34.0308 4.96001C33.9522 4.7472 33.8344 4.55404 33.6903 4.39362C33.5495 4.23647 33.3793 4.10878 33.1894 4.02039C33.0093 3.93854 32.8129 3.8927 32.6066 3.8927C32.4004 3.8927 32.2039 3.93854 32.0239 4.02039C31.8373 4.10878 31.667 4.23319 31.5262 4.39362C31.3822 4.55404 31.2643 4.7472 31.1857 4.96001C31.1104 5.16627 31.0679 5.39218 31.0679 5.63118C31.0679 5.78833 31.0875 5.93893 31.1235 6.07971C31.1563 6.20739 31.1988 6.3318 31.2545 6.44639H33.9653C34.021 6.3318 34.0668 6.20739 34.0963 6.07971C34.129 5.93893 34.1487 5.78833 34.1487 5.63118ZM33.6608 6.8982H31.5459C31.6834 7.04225 31.8438 7.16012 32.0206 7.24196C32.2007 7.32381 32.3971 7.36965 32.6034 7.36965C32.8096 7.36965 33.0093 7.32381 33.1894 7.24196C33.3662 7.16012 33.5266 7.04225 33.6608 6.8982Z" fill="#FFE200"/>
<path d="M30.7469 14.5724L30.688 15.846H34.5185L34.4596 14.5724H30.7469Z" fill="#FFE200"/>
<path d="M30.8293 12.8699L30.7671 14.1238H34.4372L34.3783 12.8699H30.8293Z" fill="#FFE200"/>
<path d="M30.9048 11.2362L30.8491 12.4214H34.3588L34.3032 11.2362H30.9048Z" fill="#FFE200"/>
<path d="M30.9834 9.64832L30.9277 10.7844H34.2835L34.2312 9.64832H30.9834Z" fill="#FFE200"/>
<path d="M31.0488 8.21436L31.0029 9.19982H34.2081L34.1623 8.21436H31.0488Z" fill="#FFE200"/>
<path d="M33.5139 6.89819H31.1108L31.0715 7.76252H34.1392L34.0967 6.89819H33.5139Z" fill="#FFE200"/>
<path d="M37.6094 16.2977H27.6009C27.5354 16.7463 27.4601 17.1752 27.388 17.604L27.2407 18.4946C27.3586 18.3832 27.483 18.2785 27.6041 18.1835C27.8268 18.0133 28.0559 17.8692 28.2884 17.7546C28.583 17.6073 28.8843 17.5025 29.1887 17.4403C29.4965 17.3781 29.8042 17.3552 30.1054 17.3814C30.4099 17.4043 30.7078 17.4731 30.9927 17.5844C31.271 17.6957 31.5394 17.8496 31.7883 18.046C31.965 18.1868 32.1353 18.3505 32.2892 18.5371C32.4005 18.6714 32.5053 18.8154 32.6035 18.9726C32.7017 18.8154 32.8065 18.6714 32.9178 18.5404C33.0749 18.3538 33.2419 18.1901 33.422 18.0493C33.6708 17.8529 33.936 17.699 34.2175 17.5909C34.5024 17.4796 34.8003 17.4109 35.1048 17.388C35.406 17.365 35.7137 17.3847 36.0215 17.4502C36.326 17.5124 36.6272 17.6171 36.9218 17.7645C37.1543 17.8791 37.3835 18.0231 37.6061 18.1934C37.7305 18.2883 37.8516 18.3931 37.9695 18.5044L37.8353 17.6957C37.796 17.4633 37.7534 17.2275 37.7109 16.9623C37.6748 16.7332 37.6388 16.5171 37.6094 16.2977Z" fill="#FFE200"/>
<path d="M14.7275 26.483C12.6257 24.7282 13.6897 22.6918 15.1499 22.4954C15.8243 22.4037 16.8294 22.8097 16.8065 23.7558C16.7967 24.2273 16.394 24.6693 15.9225 24.6824C15.0779 24.7086 14.7799 23.9425 15.2678 23.34C14.6261 23.674 14.5933 24.9541 15.8309 25.5893H16.9178V26.1065H17.5726H19.2063C20.3653 26.1065 21.6029 25.1407 22.9125 23.9555C24.9161 22.0959 25.954 22.4823 27.1064 22.7704C27.1031 23.6511 27.0966 24.7577 27.0933 25.6384C25.4956 24.5841 24.7164 24.9312 23.3086 26.1065C22.1398 26.9807 21.4588 27.701 19.334 27.7075L17.5726 27.7108C16.4235 27.7108 15.2743 27.7075 14.1251 27.7075C14.2463 27.3277 14.4787 26.8694 14.7275 26.483Z" fill="#FFE200"/>
<path d="M25.0313 41.0063C24.3471 44.0445 21.633 46.3133 18.3885 46.3133C15.144 46.3133 12.4299 44.0445 11.7456 41.0063H11.9617L17.6224 29.4459C17.6551 29.3608 18.1789 29.626 18.0709 29.9173L12.6394 41.0063H18.0807V29.9304C18.0807 29.6194 18.693 29.6227 18.693 29.9272V41.0063H24.1343L18.7028 29.9173C18.5947 29.626 19.1186 29.3608 19.1513 29.4459L24.812 41.0063H25.0313Z" fill="#FFE200"/>
<path d="M18.3946 28.3689C18.8235 28.3689 19.1673 28.716 19.1673 29.1416C19.1673 29.5705 18.8202 29.9142 18.3946 29.9142C17.9657 29.9142 17.622 29.5672 17.622 29.1416C17.622 28.716 17.9657 28.3689 18.3946 28.3689ZM18.3946 27.7534C17.6252 27.7534 17.0032 28.3755 17.0032 29.1449C17.0032 29.911 17.6252 30.5363 18.3946 30.5363C19.1607 30.5363 19.786 29.9142 19.786 29.1449C19.786 28.3755 19.164 27.7534 18.3946 27.7534Z" fill="#FFE200"/>
<path d="M18.9711 24.9181H17.7991V28.8992H18.9711V24.9181Z" fill="#FFE200"/>
<path d="M50.3356 26.483C52.4375 24.7282 51.3702 22.6918 49.9133 22.4954C49.2389 22.4037 48.2338 22.8097 48.2567 23.7558C48.2665 24.2273 48.6692 24.6693 49.1406 24.6824C49.9853 24.7086 50.2833 23.9425 49.7954 23.34C50.4371 23.674 50.4699 24.9541 49.2323 25.5893H48.1454V26.1065H47.4873H45.8536C44.6946 26.1065 43.457 25.1407 42.1475 23.9555C40.1438 22.0959 39.1059 22.4823 37.9568 22.7704C37.9601 23.6511 37.9666 24.7577 37.9699 25.6384C39.5676 24.5841 40.3468 24.9312 41.7546 26.1065C42.9234 26.9807 43.6044 27.701 45.7292 27.7075L47.4906 27.7108C48.6397 27.7108 49.7889 27.7075 50.938 27.7075C50.8136 27.3277 50.5845 26.8694 50.3356 26.483Z" fill="#FFE200"/>
<path d="M40.032 41.0063C40.7162 44.0445 43.4304 46.3133 46.6748 46.3133C49.9193 46.3133 52.6335 44.0445 53.3177 41.0063H53.1016L47.441 29.4459C47.4082 29.3608 46.8811 29.626 46.9924 29.9173L52.4239 41.0063H46.9826V29.9304C46.9826 29.6194 46.3704 29.6227 46.3704 29.9272V41.0063H40.929L46.3606 29.9173C46.4686 29.626 45.9448 29.3608 45.912 29.4459L40.2513 41.0063H40.032Z" fill="#FFE200"/>
<path d="M46.6654 28.3689C46.2365 28.3689 45.8927 28.716 45.8927 29.1416C45.8927 29.5705 46.2397 29.9142 46.6654 29.9142C47.0942 29.9142 47.438 29.5672 47.438 29.1416C47.4413 28.716 47.0942 28.3689 46.6654 28.3689ZM46.6654 27.7534C47.4315 27.7534 48.0568 28.3755 48.0568 29.1449C48.0568 29.911 47.4347 30.5363 46.6654 30.5363C45.896 30.5363 45.2739 29.9142 45.2739 29.1449C45.2772 28.3755 45.8993 27.7534 46.6654 27.7534Z" fill="#FFE200"/>
<path d="M47.2614 24.9181H46.0894V28.8992H47.2614V24.9181Z" fill="#FFE200"/>
<path d="M32.4562 41.6611C32.4431 41.6546 27.8955 39.6149 26.3601 38.947L26.347 38.9405L26.3404 38.9372C24.7427 38.0532 24.7493 36.485 24.7493 36.3835V20.0235H40.3235V36.3835C40.3268 36.485 40.3301 38.0532 38.7324 38.9339L38.7258 38.9372L38.7127 38.9437C37.2034 39.6018 32.6493 41.6546 32.6362 41.6578L32.5446 41.6971L32.4562 41.6611Z" fill="#FFE200"/>
<path d="M26.5501 38.541C27.9579 39.1533 31.8965 40.9212 32.5447 41.2126C33.1897 40.9212 37.0923 39.1664 38.523 38.541C39.9275 37.7618 39.8784 36.3933 39.8784 36.39V36.3835V20.472H25.198V36.3835V36.39C25.198 36.3933 25.1489 37.7618 26.5501 38.541Z" fill="#0071BB"/>
<path d="M32.548 30.6639C32.548 30.6639 32.9507 32.1502 33.5924 33.1226C33.3534 33.2798 32.548 33.8232 32.548 33.8232C32.548 33.8232 31.7458 33.2765 31.5036 33.1226C32.1453 32.1502 32.548 30.6639 32.548 30.6639ZM32.0798 36.0233V37.8829C31.2449 37.1103 31.1434 36.0233 31.1434 36.0233H32.0798ZM30.9928 35.1263C30.9928 34.5697 31.0583 34.2619 31.1369 34.0099C32.0536 34.1539 32.0896 35.1263 32.0896 35.1263H30.9928ZM30.2431 33.7807C30.0532 34.3929 30.0532 35.1361 30.0532 35.1361H28.0397V32.4154H28.5308C28.7862 33.5973 30.0532 33.7807 30.2431 33.7807ZM28.0397 24.8133C28.0397 24.8133 28.868 25.8446 29.107 27.056C29.238 28.1724 29.5032 30.343 29.5032 30.343C29.5032 30.343 28.7109 30.6802 28.5308 31.5053H28.0397V24.8133ZM33.0161 36.0233H33.9525C33.9525 36.0233 33.851 37.107 33.0161 37.8829V36.0233ZM34.0998 35.1263H33.003C33.003 35.1263 33.0391 34.1572 33.9558 34.0099C34.0343 34.2619 34.0998 34.5664 34.0998 35.1263ZM34.8496 33.7807C35.0427 33.7807 36.3065 33.5941 36.5651 32.4154H37.0562V35.1361H35.0427C35.0427 35.1361 35.0427 34.3929 34.8496 33.7807ZM37.0562 24.8133V31.5053H36.5651C36.385 30.677 35.5927 30.343 35.5927 30.343C35.5927 30.343 35.8579 28.1724 35.9889 27.056C36.2279 25.8446 37.0562 24.8133 37.0562 24.8133ZM32.548 21.5524C31.8932 22.2792 31.8833 23.1927 31.8833 23.3597C31.8833 24.3255 32.0078 26.041 32.0078 27.917C32.0078 30.8538 30.6 32.8083 30.6 32.8083C30.6 32.8083 30.577 32.8574 30.2889 32.8574C30.0008 32.8574 29.3788 32.6217 29.3788 31.9342C29.3788 31.2434 30.1416 31.0535 30.2824 31.0535C30.4264 31.0535 30.4985 31.0764 30.4985 31.0764C30.4985 31.0764 30.3544 29.8159 30.0303 26.9741C29.4017 23.9359 27.1165 22.8718 27.1165 22.8718V36.0201H30.1612C30.1612 36.0201 30.3839 37.8731 32.0078 39.055C32.0078 39.055 32.5218 39.5003 32.548 39.6443C32.5709 39.5003 33.0882 39.055 33.0882 39.055C34.712 37.8731 34.9347 36.0201 34.9347 36.0201H37.9795V22.8751C37.9795 22.8751 35.6942 23.9359 35.0656 26.9774C34.7415 29.8192 34.5975 31.0797 34.5975 31.0797C34.5975 31.0797 34.6695 31.0567 34.8135 31.0567C34.9576 31.0567 35.7172 31.2499 35.7172 31.9374C35.7172 32.625 35.0951 32.8607 34.807 32.8607C34.5189 32.8607 34.496 32.8116 34.496 32.8116C34.496 32.8116 33.0882 30.857 33.0882 27.917C33.0882 26.041 33.2126 24.3255 33.2126 23.3597C33.2126 23.1927 33.2027 22.2825 32.548 21.5524Z" fill="#FFE100"/>
<path d="M32.5446 77.9563C29.1593 77.9563 23.9767 77.9923 24.6609 74.7085C24.8704 73.7034 24.8966 72.5903 24.7329 71.3429C24.2091 70.9664 23.515 70.8059 22.6605 70.8616C21.734 71.4051 21.125 72.1483 20.6732 73.1894C20.2312 74.1978 18.8791 74.5415 17.7332 73.8998C9.80694 69.4669 5.00731 64.0092 2.15897 58.1914C1.42232 56.6853 1.36012 55.3758 2.57803 54.9043C3.75666 54.4492 4.8829 54.3117 5.53442 53.5653C2.47981 51.7777 0.731519 49.9574 0.64967 48.0879C0.607108 47.0992 1.94943 46.8602 2.75483 46.2545C3.80904 45.4688 3.35069 44.313 5.65556 44.0479C4.36889 44.958 4.53259 46.1727 6.94222 47.7114C7.95715 48.3597 9.55157 48.9981 11.3162 49.8035C13.7783 50.9232 15.3432 54.0138 12.3705 54.9763C10.7531 54.1415 9.45663 50.7824 7.8 51.9316C5.68175 53.4016 10.154 59.262 14.5084 63.6818C17.2519 66.4679 20.0806 68.6026 20.7583 68.9856C21.1185 69.1886 21.9959 69.6601 22.5819 69.5749C23.9275 69.3752 22.834 68.249 22.4543 67.843C20.4408 65.7051 23.276 64.0092 25.5612 64.8048C28.9072 65.9703 28.8287 67.6204 27.2932 68.5142C26.3928 69.038 24.4677 68.763 24.9195 70.066C25.3124 71.1923 27.9381 71.7914 32.5413 71.667C37.1445 71.7947 39.7702 71.1956 40.1598 70.066C40.6116 68.7597 38.6866 69.0347 37.7862 68.5142C36.2507 67.6204 36.1722 65.9703 39.5182 64.8048C41.8034 64.0092 44.6386 65.7084 42.6251 67.843C42.2421 68.249 41.1519 69.3752 42.4975 69.5749C43.0802 69.6633 43.9576 69.1919 44.321 68.9856C44.9988 68.6026 47.8275 66.4679 50.571 63.6818C54.9254 59.2587 59.3976 53.4016 57.2794 51.9316C55.6228 50.7824 54.3263 54.1415 52.7089 54.9763C49.7362 54.0138 51.3011 50.9232 53.7632 49.8035C55.5278 49.0014 57.119 48.3629 58.1372 47.7114C60.5468 46.1727 60.7138 44.958 59.4238 44.0479C61.732 44.3098 61.2736 45.4688 62.3246 46.2545C63.1332 46.8569 64.4756 47.0992 64.4297 48.0879C64.3511 49.9541 62.6029 51.7777 59.545 53.5653C60.1965 54.3117 61.3227 54.4492 62.5014 54.9043C63.7193 55.3758 63.6571 56.6853 62.9204 58.1914C60.0754 64.0092 55.2724 69.4669 47.3462 73.8998C46.2036 74.5383 44.8482 74.1978 44.4062 73.1894C43.9544 72.1515 43.3454 71.4051 42.4189 70.8616C41.5611 70.8092 40.8703 70.9696 40.3432 71.3429C40.1762 72.5903 40.2057 73.7067 40.4152 74.7085C41.1126 77.9923 35.9299 77.9563 32.5446 77.9563Z" fill="#0071BB"/>
<path d="M28.8417 73.4546H29.6209V75.8151H30.531V76.5092H28.8384V73.4546H28.8417ZM31.2022 73.4546H32.9996V74.0701H31.9814V74.6201H32.8621V75.2356H31.9814V75.897H33.0323V76.5125H31.2022V73.4546ZM34.558 74.8853L33.6937 73.4579H34.5875L34.8887 74.0275C34.9083 74.0603 34.9247 74.0996 34.941 74.1421C34.9541 74.1847 34.9705 74.2371 34.9869 74.2993C35.0032 74.3582 35.0131 74.4139 35.0196 74.4564C35.0262 74.499 35.0294 74.5546 35.0294 74.6201C35.0425 74.4924 35.0622 74.3778 35.0884 74.2731C35.1146 74.1716 35.144 74.0897 35.1768 74.0308L35.4878 73.4611H36.3718L35.5074 74.8886L36.4962 76.5157H35.5926L35.1637 75.7005C35.0982 75.5794 35.0491 75.3961 35.0196 75.1505C35.0196 75.2618 35.0098 75.36 34.9869 75.4452C34.964 75.5336 34.9312 75.6187 34.8887 75.7005L34.4696 76.5157H33.566L34.558 74.8853Z" fill="#FFE200"/>
<path d="M5.0268 57.3662L5.82237 57.2222L5.98935 57.1829C6.06137 57.1632 6.12685 57.1436 6.18578 57.1174C6.24471 57.0945 6.32001 57.0552 6.41496 57.0061C6.32984 57.0519 6.25781 57.0945 6.19888 57.137C6.13995 57.1796 6.08429 57.2222 6.03191 57.2647L5.9075 57.3793L5.33783 57.9555L5.0268 57.3662ZM4.8762 59.5008L7.06975 57.1141L6.68997 56.4004L3.48804 56.8849L3.86454 57.5921L4.45058 57.4841L4.91876 58.368L4.49969 58.7904L4.8762 59.5008ZM8.08795 60.0378L8.60852 59.7136L7.65907 58.188L5.06609 59.8053L6.03518 61.3572L6.55574 61.033L5.99917 60.1425L6.55901 59.7922L7.02719 60.5419L7.54775 60.2178L7.07957 59.4681L7.54775 59.1767L8.08795 60.0378ZM9.27313 62.2149C9.23384 62.4343 9.12253 62.6144 8.94246 62.7552C8.75912 62.8927 8.55286 62.9516 8.33023 62.9287C8.1076 62.9058 7.93408 62.8108 7.80639 62.6406C7.67544 62.4703 7.6296 62.2739 7.66889 62.0513C7.70818 61.8319 7.81949 61.6518 8.00283 61.511C8.18617 61.3735 8.38916 61.3146 8.61179 61.3375C8.83442 61.3604 9.01121 61.4554 9.1389 61.6289C9.26658 61.7992 9.31242 61.9956 9.27313 62.2149ZM10.0654 62.3459C10.1276 61.9301 10.0196 61.5405 9.74458 61.1738C9.46629 60.8071 9.11925 60.5976 8.70346 60.5419C8.28767 60.4896 7.89479 60.6009 7.52811 60.8792C7.15815 61.1575 6.94207 61.5045 6.87986 61.9203C6.81766 62.3361 6.92242 62.7224 7.19744 63.0825C7.24982 63.1513 7.3022 63.2102 7.35131 63.2593C7.4037 63.3085 7.479 63.3707 7.58049 63.4492L7.42007 64.1859L8.11415 64.3365L8.17308 63.7144C8.45464 63.7341 8.68381 63.7177 8.86716 63.6653C9.0505 63.6162 9.23384 63.5213 9.42046 63.3805C9.78714 63.1087 9.99995 62.7617 10.0654 62.3459ZM11.1491 65.7312L12.5045 64.51L11.9872 63.9338L10.6777 65.1124C10.5696 65.2074 10.4878 65.2728 10.4354 65.3056C10.3797 65.3383 10.3044 65.3579 10.2095 65.3612C10.1145 65.3645 10.0163 65.3088 9.91483 65.1975C9.83298 65.1059 9.79041 65.0109 9.78387 64.9061C9.77732 64.8047 9.79696 64.7261 9.84607 64.6704C9.89518 64.618 9.93447 64.5722 9.96721 64.5427C9.99995 64.5133 10.0392 64.4805 10.0752 64.4445L11.3816 63.2659L10.861 62.6864L9.50558 63.9076C9.31569 64.0778 9.18146 64.2219 9.1127 64.3365C9.04068 64.4511 8.99812 64.5853 8.98502 64.7457C8.97192 64.9061 8.99812 65.0666 9.06032 65.2237C9.12253 65.3841 9.22402 65.538 9.35825 65.6886C9.57106 65.9243 9.80024 66.0717 10.0523 66.1306C10.3012 66.1895 10.5107 66.1699 10.6744 66.0782C10.8414 65.9833 10.9985 65.8654 11.1491 65.7312ZM11.267 67.5351L13.4081 65.3547L12.8516 64.8079L10.7104 66.9884L11.267 67.5351ZM14.7112 67.45L15.1695 66.9262L13.5653 65.5249L13.1069 66.0488L13.6177 66.494L12.0658 68.2718L12.6551 68.7858L14.207 67.008L14.7112 67.45ZM15.6639 68.7825L15.3791 69.5388L14.8585 69.1328L15.5264 68.6745L15.6606 68.5697C15.7196 68.5239 15.7719 68.4748 15.8112 68.4289C15.8538 68.3831 15.9095 68.3176 15.9749 68.2325C15.916 68.3078 15.8669 68.3765 15.8309 68.4388C15.7916 68.501 15.7588 68.5632 15.7327 68.6221L15.6639 68.7825ZM15.5919 71.1463L16.6232 68.0753L15.9848 67.5777L13.2575 69.326L13.8894 69.8204L14.3772 69.4799L15.1663 70.0954L14.9567 70.6519L15.5919 71.1463ZM19.0917 70.151C19.0426 69.9775 18.9739 69.8236 18.8855 69.6992C18.7971 69.5748 18.6759 69.4602 18.5253 69.3587C18.2569 69.1787 17.9819 69.1034 17.7003 69.1394C17.4187 69.1754 17.1994 69.3129 17.039 69.5519C16.8949 69.7647 16.8458 69.9513 16.8916 70.1183C16.9375 70.282 16.98 70.3966 17.0193 70.4653C17.0586 70.5341 17.1372 70.6421 17.2485 70.7895C17.3598 70.9368 17.4318 71.0383 17.458 71.1005C17.4875 71.1791 17.481 71.2511 17.4384 71.3133C17.386 71.3919 17.314 71.4344 17.2158 71.441C17.1175 71.4508 17.0259 71.4213 16.9309 71.3591C16.7148 71.2151 16.5839 70.9499 16.538 70.5701L15.9651 70.927C16.0306 71.3395 16.2434 71.6636 16.597 71.9026C16.8785 72.0925 17.1601 72.1645 17.4449 72.122C17.7298 72.0794 17.9589 71.9288 18.1325 71.6702C18.2863 71.441 18.3289 71.2052 18.2634 70.9695C18.2143 70.8287 18.1325 70.6814 18.0113 70.5275C17.8935 70.3737 17.8182 70.2787 17.792 70.2362C17.7658 70.1969 17.7461 70.151 17.7298 70.0954C17.7167 70.0397 17.7298 69.9841 17.7691 69.9219C17.8116 69.8597 17.8706 69.8236 17.9491 69.8171C18.0277 69.8105 18.1063 69.8335 18.1816 69.8826C18.3322 69.9841 18.4435 70.1707 18.5155 70.4457L19.0917 70.151Z" fill="#FFED00"/>
<path d="M48.5316 70.6029C48.5087 70.8092 48.4105 70.9729 48.2304 71.0973L47.9947 71.261L47.0387 69.8958L47.2483 69.7484C47.4283 69.624 47.6248 69.5815 47.8343 69.6273C48.0438 69.6731 48.2173 69.7943 48.3516 69.9874C48.4924 70.1937 48.5513 70.3967 48.5316 70.6029ZM48.1879 68.9168C47.8769 68.8121 47.6117 68.8055 47.389 68.9005C47.1664 68.9954 46.9798 69.0936 46.8259 69.2017L46.0042 69.7779L47.7557 72.2825L48.6299 71.6702C48.9965 71.4149 49.2094 71.0875 49.2748 70.6913C49.337 70.2952 49.2388 69.9056 48.9704 69.5258C48.7608 69.2246 48.4989 69.0216 48.1879 68.9168ZM50.2276 67.4206L49.8478 66.9361L48.4302 68.0427L50.3127 70.4523L51.7565 69.3261L51.3767 68.8415L50.5484 69.4898L50.1424 68.9692L50.8365 68.4257L50.46 67.9412L49.7659 68.4847L49.4254 68.0492L50.2276 67.4206ZM51.9071 65.9506L51.5011 65.489L50.1915 66.6349L52.2018 68.9332L52.7878 68.4192L51.9464 67.4599L52.5783 66.9066L52.1723 66.445L51.5404 66.995L51.177 66.5792L51.9071 65.9506ZM53.3902 64.4806L52.9613 64.0419L51.6812 65.3024L53.8224 67.4796L55.1287 66.1962L54.6965 65.7575L53.9468 66.4941L53.4852 66.0227L54.1138 65.4039L53.6849 64.9652L53.0563 65.584L52.6699 65.1911L53.3902 64.4806ZM57.355 63.6654L55.0403 61.6716L54.5328 62.2609L55.6591 63.2332C55.7016 63.2693 55.7769 63.3216 55.885 63.3838C55.993 63.4493 56.1076 63.5148 56.232 63.5836C56.1338 63.5475 56.0192 63.5083 55.8784 63.4591C55.7409 63.41 55.6492 63.3838 55.61 63.3773L53.7438 63.1776L53.2298 63.7735L55.5445 65.7673L56.0552 65.178L54.8897 64.1729C54.8799 64.1631 54.7718 64.1008 54.5721 63.983L54.4084 63.8946L54.3233 63.8422C54.3626 63.8586 54.4084 63.8782 54.4542 63.8913C54.5001 63.9077 54.5492 63.924 54.6016 63.9437C54.654 63.9601 54.7162 63.983 54.7915 64.0059C54.8668 64.0321 54.9159 64.0419 54.9421 64.0419L56.8639 64.2416L57.355 63.6654ZM56.6511 59.9102C56.4743 59.9527 56.3204 60.0182 56.1927 60.1033C56.065 60.1885 55.9472 60.303 55.8424 60.4504C55.6525 60.7156 55.5707 60.9873 55.5969 61.2689C55.6263 61.5504 55.754 61.7731 55.9897 61.9433C56.1993 62.0939 56.3859 62.1496 56.5496 62.1103C56.7133 62.071 56.8311 62.0317 56.8999 61.9924C56.9686 61.9531 57.08 61.8811 57.2306 61.7731C57.3812 61.665 57.4859 61.5995 57.5481 61.5733C57.63 61.5472 57.6987 61.557 57.7577 61.5995C57.833 61.6552 57.8755 61.7305 57.8788 61.8254C57.8854 61.9237 57.8526 62.0153 57.7871 62.107C57.6365 62.3165 57.3681 62.4409 56.985 62.4737L57.3222 63.0565C57.738 63.0041 58.0687 62.8044 58.3175 62.4573C58.514 62.1823 58.5958 61.9007 58.5631 61.6159C58.5303 61.3311 58.3863 61.0953 58.1309 60.9153C57.905 60.7549 57.6758 60.7025 57.4368 60.7647C57.2928 60.8072 57.1454 60.8858 56.985 61.0004C56.8279 61.115 56.7296 61.1837 56.6871 61.2099C56.6478 61.2361 56.5987 61.2525 56.543 61.2656C56.4874 61.2787 56.4317 61.2623 56.3728 61.2198C56.3106 61.1739 56.2778 61.115 56.2746 61.0364C56.2713 60.9578 56.2942 60.8825 56.3499 60.8072C56.4546 60.6599 56.6478 60.5551 56.9228 60.4929L56.6511 59.9102ZM59.6566 60.3456L57.0636 58.7315L56.6511 59.3929L59.2441 61.0069L59.6566 60.3456ZM60.1247 58.1717C60.0233 58.3681 59.8628 58.4925 59.6467 58.5482C59.4339 58.6039 59.2211 58.5744 59.0149 58.4664C58.8053 58.355 58.6646 58.1946 58.5925 57.9884C58.5205 57.7788 58.5369 57.5791 58.6416 57.3859C58.7431 57.1961 58.9003 57.0749 59.1131 57.0193C59.3259 56.9636 59.5387 56.9898 59.7417 57.0978C59.948 57.2092 60.0887 57.3663 60.164 57.5758C60.2393 57.7821 60.2262 57.9818 60.1247 58.1717ZM60.9105 57.3237C60.7828 56.921 60.5143 56.61 60.1117 56.3972C59.7057 56.1811 59.303 56.1353 58.897 56.2564C58.491 56.3776 58.1833 56.6362 57.9705 57.0324C57.7577 57.4351 57.7151 57.8378 57.8428 58.2405C57.9705 58.6431 58.2357 58.9542 58.6416 59.167C59.0509 59.3831 59.4569 59.4322 59.8628 59.311C60.2655 59.1899 60.5766 58.928 60.7894 58.5253C60.9989 58.1259 61.0382 57.7264 60.9105 57.3237Z" fill="#FFE200"/>
</svg>
