<svg width="17" height="18" viewBox="0 0 17 18" fill="none" xmlns="http://www.w3.org/2000/svg">
<g clip-path="url(#clip0_407:196)">
<path d="M14.8751 15.375L11.6975 12.1917L14.8751 15.375ZM13.4584 7.93746C13.4584 9.53428 12.8241 11.0657 11.695 12.1948C10.5658 13.324 9.03441 13.9583 7.43758 13.9583C5.84076 13.9583 4.30933 13.324 3.18021 12.1948C2.05108 11.0657 1.41675 9.53428 1.41675 7.93746C1.41675 6.34063 2.05108 4.80921 3.18021 3.68009C4.30933 2.55096 5.84076 1.91663 7.43758 1.91663C9.03441 1.91663 10.5658 2.55096 11.695 3.68009C12.8241 4.80921 13.4584 6.34063 13.4584 7.93746V7.93746Z" stroke="white" stroke-width="2" stroke-linecap="round"/>
</g>
<defs>
<clipPath id="clip0_407:196">
<rect width="17" height="17" fill="white" transform="translate(0 0.5)"/>
</clipPath>
</defs>
</svg>
