<svg width="18" height="18" viewBox="0 0 18 18" fill="none" xmlns="http://www.w3.org/2000/svg">
<path d="M17.7324 3.70281C17.1061 3.98031 16.4334 4.16781 15.7261 4.25256C16.4559 3.8159 17.0018 3.12866 17.2621 2.31906C16.5765 2.7263 15.8261 3.01295 15.0436 3.16656C14.5174 2.60471 13.8204 2.2323 13.0609 2.10716C12.3013 1.98202 11.5217 2.11115 10.8431 2.4745C10.1644 2.83784 9.62471 3.41508 9.30775 4.11659C8.99078 4.81809 8.91428 5.60462 9.09013 6.35406C7.7009 6.28431 6.34185 5.92322 5.1012 5.29424C3.86055 4.66525 2.76601 3.78243 1.88863 2.70306C1.58863 3.22056 1.41613 3.82056 1.41613 4.45956C1.4158 5.0348 1.55746 5.60124 1.82854 6.10861C2.09962 6.61598 2.49175 7.04859 2.97013 7.36806C2.41534 7.35041 1.87279 7.2005 1.38763 6.93081V6.97581C1.38757 7.78261 1.66666 8.56459 2.17752 9.18906C2.68838 9.81352 3.39956 10.242 4.19038 10.4018C3.67572 10.5411 3.13613 10.5616 2.61238 10.4618C2.8355 11.156 3.27013 11.7631 3.85541 12.198C4.44069 12.6329 5.14732 12.8739 5.87638 12.8873C4.63876 13.8589 3.1103 14.3859 1.53688 14.3836C1.25817 14.3836 0.979688 14.3674 0.702881 14.3348C2.29999 15.3617 4.15914 15.9067 6.05788 15.9046C12.4854 15.9046 15.9991 10.5811 15.9991 5.96406C15.9991 5.81406 15.9954 5.66256 15.9886 5.51256C16.6721 5.01829 17.2621 4.40623 17.7309 3.70506L17.7324 3.70281Z" fill="white"/>
</svg>
