<svg width="21" height="22" viewBox="0 0 21 22" fill="none" xmlns="http://www.w3.org/2000/svg">
<g clip-path="url(#clip0_407:206)">
<path d="M10.5669 2.74866H10.6838C11.7626 2.75278 17.2292 2.79403 18.7031 3.20928C19.1487 3.33601 19.5547 3.58304 19.8806 3.92567C20.2066 4.2683 20.4409 4.69453 20.5603 5.16178C20.6929 5.68428 20.7861 6.37591 20.8491 7.08953L20.8622 7.23253L20.8911 7.59003L20.9016 7.73303C20.9869 8.98978 20.9974 10.1668 20.9987 10.4239V10.527C20.9974 10.7938 20.9856 12.0505 20.8911 13.3595L20.8806 13.5039L20.8687 13.6469C20.8031 14.4334 20.706 15.2144 20.5603 15.7892C20.4413 16.2566 20.207 16.683 19.8811 17.0257C19.5551 17.3684 19.1489 17.6153 18.7031 17.7417C17.1806 18.1707 11.3938 18.2009 10.5919 18.2023H10.4055C9.99994 18.2023 8.32256 18.194 6.56381 18.1308L6.34069 18.1225L6.2265 18.117L6.00206 18.1074L5.77763 18.0978C4.32075 18.0304 2.93344 17.9218 2.29425 17.7403C1.84864 17.614 1.44252 17.3674 1.11658 17.0249C0.790628 16.6825 0.556299 16.2563 0.437063 15.7892C0.291375 15.2158 0.19425 14.4334 0.128625 13.6469L0.118125 13.5025L0.107625 13.3595C0.04285 12.4278 0.00695607 11.4942 0 10.56L0 10.3909C0.002625 10.0953 0.013125 9.07366 0.084 7.94616L0.0931875 7.80453L0.097125 7.73303L0.107625 7.59003L0.1365 7.23253L0.149625 7.08953C0.212625 6.37591 0.305812 5.68291 0.438375 5.16178C0.55741 4.69435 0.79165 4.26791 1.11761 3.92522C1.44357 3.58253 1.8498 3.33563 2.29556 3.20928C2.93475 3.03053 4.32206 2.92053 5.77894 2.85178L6.00206 2.84216L6.22781 2.83391L6.34069 2.82978L6.56512 2.82016C7.81424 2.77805 9.06387 2.75467 10.3136 2.75003H10.5669V2.74866ZM8.4 7.16241V13.7872L13.8561 10.4762L8.4 7.16241Z" fill="white"/>
</g>
<defs>
<clipPath id="clip0_407:206">
<rect width="21" height="22" fill="white"/>
</clipPath>
</defs>
</svg>
