<svg width="48" height="48" viewBox="0 0 48 48" fill="none" xmlns="http://www.w3.org/2000/svg">
<path d="M39.5001 10.66C38.8371 10.66 38.2012 10.9234 37.7323 11.3922C37.2635 11.8611 37.0001 12.497 37.0001 13.16V22.34H35.3401V8.16C35.3401 7.49696 35.0767 6.86107 34.6079 6.39223C34.139 5.92339 33.5031 5.66 32.8401 5.66C32.177 5.66 31.5412 5.92339 31.0723 6.39223C30.6035 6.86107 30.3401 7.49696 30.3401 8.16V22.34H28.6601V6.5C28.6601 5.83696 28.3967 5.20107 27.9279 4.73223C27.459 4.26339 26.8231 4 26.1601 4C25.497 4 24.8612 4.26339 24.3923 4.73223C23.9235 5.20107 23.6601 5.83696 23.6601 6.5V22.34H22.0001V10.66C22.0001 9.99696 21.7367 9.36107 21.2679 8.89223C20.799 8.42339 20.1631 8.16 19.5001 8.16C18.837 8.16 18.2012 8.42339 17.7323 8.89223C17.2635 9.36107 17.0001 9.99696 17.0001 10.66V30.52L9.82009 26.52C9.51722 26.3402 9.17226 26.2437 8.82009 26.24C8.33394 26.2407 7.8647 26.4184 7.50009 26.74L5.34009 28.74L18.4201 42C19.0353 42.6346 19.7721 43.1388 20.5865 43.4825C21.4009 43.8261 22.2762 44.0021 23.1601 44H35.3401C37.1064 44 38.8004 43.2983 40.0494 42.0493C41.2984 40.8003 42.0001 39.1063 42.0001 37.34V13.16C42.0001 12.497 41.7367 11.8611 41.2679 11.3922C40.799 10.9234 40.1631 10.66 39.5001 10.66ZM22.0001 30C21.6045 30 21.2178 29.8827 20.8889 29.6629C20.5601 29.4432 20.3037 29.1308 20.1523 28.7654C20.001 28.3999 19.9613 27.9978 20.0385 27.6098C20.1157 27.2219 20.3062 26.8655 20.5859 26.5858C20.8656 26.3061 21.2219 26.1156 21.6099 26.0384C21.9979 25.9613 22.4 26.0009 22.7655 26.1522C23.1309 26.3036 23.4433 26.56 23.663 26.8889C23.8828 27.2178 24.0001 27.6044 24.0001 28C24.0001 28.5304 23.7894 29.0391 23.4143 29.4142C23.0392 29.7893 22.5305 30 22.0001 30ZM26.0001 36C25.6045 36 25.2178 35.8827 24.8889 35.6629C24.5601 35.4432 24.3037 35.1308 24.1523 34.7654C24.001 34.3999 23.9613 33.9978 24.0385 33.6098C24.1157 33.2219 24.3062 32.8655 24.5859 32.5858C24.8656 32.3061 25.2219 32.1156 25.6099 32.0384C25.9979 31.9613 26.4 32.0009 26.7655 32.1522C27.1309 32.3036 27.4433 32.56 27.663 32.8889C27.8828 33.2178 28.0001 33.6044 28.0001 34C28.0001 34.5304 27.7894 35.0391 27.4143 35.4142C27.0392 35.7893 26.5305 36 26.0001 36ZM36.0001 32C35.6045 32 35.2178 31.8827 34.889 31.6629C34.5601 31.4432 34.3037 31.1308 34.1523 30.7654C34.001 30.3999 33.9613 29.9978 34.0385 29.6098C34.1157 29.2219 34.3062 28.8655 34.5859 28.5858C34.8656 28.3061 35.2219 28.1156 35.6099 28.0384C35.9979 27.9613 36.4 28.0009 36.7655 28.1522C37.1309 28.3036 37.4433 28.56 37.663 28.8889C37.8828 29.2178 38.0001 29.6044 38.0001 30C38.0001 30.5304 37.7894 31.0391 37.4143 31.4142C37.0392 31.7893 36.5305 32 36.0001 32ZM34.0001 38C33.6045 38 33.2178 37.8827 32.889 37.6629C32.5601 37.4432 32.3037 37.1308 32.1523 36.7654C32.001 36.3999 31.9613 35.9978 32.0385 35.6098C32.1157 35.2219 32.3062 34.8655 32.5859 34.5858C32.8656 34.3061 33.2219 34.1156 33.6099 34.0384C33.9979 33.9613 34.4 34.0009 34.7655 34.1522C35.1309 34.3036 35.4433 34.56 35.663 34.8889C35.8828 35.2178 36.0001 35.6044 36.0001 36C36.0001 36.5304 35.7894 37.0391 35.4143 37.4142C35.0392 37.7893 34.5305 38 34.0001 38ZM30.0001 30C29.6045 30 29.2178 29.8827 28.8889 29.6629C28.5601 29.4432 28.3037 29.1308 28.1523 28.7654C28.001 28.3999 27.9613 27.9978 28.0385 27.6098C28.1157 27.2219 28.3062 26.8655 28.5859 26.5858C28.8656 26.3061 29.2219 26.1156 29.6099 26.0384C29.9979 25.9613 30.4 26.0009 30.7655 26.1522C31.1309 26.3036 31.4433 26.56 31.663 26.8889C31.8828 27.2178 32.0001 27.6044 32.0001 28C32.0001 28.5304 31.7894 29.0391 31.4143 29.4142C31.0392 29.7893 30.5305 30 30.0001 30Z" fill="#D1D1D1"/>
</svg>
