<svg width="48" height="48" viewBox="0 0 48 48" fill="none" xmlns="http://www.w3.org/2000/svg">
<path d="M26.784 26.7324L28.8 29.6015H25.2C24.84 35.7723 24 41.9203 22.8 48L20.4 47.6357C21.6 41.6698 22.416 35.6584 22.8 29.6015H19.2L21.216 26.7324C15.936 24.5693 12 16.759 12 11.3852C12 8.36566 13.2643 5.46979 15.5147 3.33465C17.7652 1.19951 20.8174 0 24 0C25.5759 0 27.1363 0.294487 28.5922 0.866647C30.0481 1.43881 31.371 2.27743 32.4853 3.33465C33.5996 4.39186 34.4835 5.64696 35.0866 7.02827C35.6896 8.40959 36 9.89007 36 11.3852C36 16.759 32.064 24.5693 26.784 26.7324Z" fill="#D1D1D1"/>
</svg>
