<svg width="48" height="48" viewBox="0 0 48 48" fill="none" xmlns="http://www.w3.org/2000/svg">
<g clip-path="url(#clip0_407:110)">
<path d="M40.3333 40.4H7.66667V15.1H40.3333V40.4ZM33.3333 -1V3.6H14.6667V-1H10V3.6H7.66667C5.07667 3.6 3 5.647 3 8.2V40.4C3 41.62 3.49167 42.79 4.36683 43.6527C5.242 44.5154 6.42899 45 7.66667 45H40.3333C41.571 45 42.758 44.5154 43.6332 43.6527C44.5083 42.79 45 41.62 45 40.4V8.2C45 6.98 44.5083 5.80998 43.6332 4.94731C42.758 4.08464 41.571 3.6 40.3333 3.6H38V-1" fill="#D1D1D1"/>
</g>
<defs>
<clipPath id="clip0_407:110">
<rect width="48" height="48" fill="white"/>
</clipPath>
</defs>
</svg>
