<svg width="40" height="38" viewBox="0 0 40 38" fill="none" xmlns="http://www.w3.org/2000/svg">
<path d="M16 0H24C25.0609 0 26.0783 0.421427 26.8284 1.17157C27.5786 1.92172 28 2.93913 28 4V8H36C37.0609 8 38.0783 8.42143 38.8284 9.17157C39.5786 9.92172 40 10.9391 40 12V34C40 35.0609 39.5786 36.0783 38.8284 36.8284C38.0783 37.5786 37.0609 38 36 38H4C2.93913 38 1.92172 37.5786 1.17157 36.8284C0.421427 36.0783 0 35.0609 0 34V12C0 9.78 1.78 8 4 8H12V4C12 1.78 13.78 0 16 0ZM24 8V4H16V8H24Z" fill="#D1D1D1"/>
</svg>
