<svg width="42" height="46" viewBox="0 0 42 46" fill="none" xmlns="http://www.w3.org/2000/svg">
<path d="M37.3333 16.1V11.5C37.3333 10.28 36.8417 9.10998 35.9665 8.24731C35.0913 7.38464 33.9043 6.9 32.6667 6.9H30.3333V0H25.6667V6.9H23.3333C22.0957 6.9 20.9087 7.38464 20.0335 8.24731C19.1583 9.10998 18.6667 10.28 18.6667 11.5V16.1C17.429 16.1 16.242 16.5846 15.3668 17.4473C14.4917 18.31 14 19.48 14 20.7V23H4.66667C3.42899 23 2.242 23.4846 1.36683 24.3473C0.491665 25.21 0 26.38 0 27.6V46H7V41.4H11.6667V46H21V41.4H25.6667V46H30.3333V41.4H35V46H42V20.7C42 19.48 41.5083 18.31 40.6332 17.4473C39.758 16.5846 38.571 16.1 37.3333 16.1ZM11.6667 36.8H7V32.2H11.6667V36.8ZM25.6667 36.8H21V32.2H25.6667V36.8ZM25.6667 27.6H21V23H25.6667V27.6ZM23.3333 16.1V11.5H32.6667V16.1H23.3333ZM35 36.8H30.3333V32.2H35V36.8ZM35 27.6H30.3333V23H35V27.6Z" fill="#D1D1D1"/>
</svg>
