<svg width="48" height="48" viewBox="0 0 48 48" fill="none" xmlns="http://www.w3.org/2000/svg">
<path d="M48 31.3628C48 36.6925 43.776 41 38.568 41H9.432C4.224 41 0 36.6925 0 31.3628C0 26.5686 3.432 22.6018 7.944 21.8717C7.872 21.531 7.848 21.1903 7.848 20.8252C7.848 17.4668 10.512 14.7168 13.824 14.7168C15.288 14.7168 16.656 15.2765 17.688 16.177C19.536 11.9181 21.912 8 28.584 8C36.672 8 40.488 14.3761 40.488 21.1173C40.488 21.385 40.488 21.677 40.464 21.9447C42.596 22.3976 44.5092 23.5813 45.8816 25.2965C47.2541 27.0118 48.0022 29.154 48 31.3628Z" fill="#D1D1D1"/>
</svg>
