<svg width="34" height="40" viewBox="0 0 34 40" fill="none" xmlns="http://www.w3.org/2000/svg">
<path d="M2.26667 0C2.86782 0 3.44436 0.234126 3.86944 0.650874C4.29452 1.06762 4.53333 1.63285 4.53333 2.22222V4.17778C6.936 3.2 10.2 2.22222 13.6 2.22222C20.4 2.22222 20.4 6.66667 24.9333 6.66667C31.7333 6.66667 34 2.22222 34 2.22222V20C34 20 31.7333 24.4444 24.9333 24.4444C18.1333 24.4444 18.1333 20 13.6 20C6.8 20 4.53333 24.4444 4.53333 24.4444V40H0V2.22222C0 1.63285 0.238809 1.06762 0.663892 0.650874C1.08897 0.234126 1.66551 0 2.26667 0Z" fill="#D1D1D1"/>
</svg>
