<svg width="44" height="46" viewBox="0 0 44 46" fill="none" xmlns="http://www.w3.org/2000/svg">
<path d="M22.005 31.05C19.9055 31.05 17.8921 30.2019 16.4075 28.6922C14.923 27.1825 14.089 25.135 14.089 23C14.089 20.865 14.923 18.8175 16.4075 17.3078C17.8921 15.7981 19.9055 14.95 22.005 14.95C24.1045 14.95 26.1179 15.7981 27.6025 17.3078C29.087 18.8175 29.921 20.865 29.921 23C29.921 25.135 29.087 27.1825 27.6025 28.6922C26.1179 30.2019 24.1045 31.05 22.005 31.05ZM38.8096 25.231C38.9 24.495 38.9679 23.759 38.9679 23C38.9679 22.241 38.9 21.482 38.8096 20.7L43.5818 16.951C44.0115 16.606 44.1246 15.985 43.8532 15.479L39.3298 7.521C39.0583 7.015 38.4477 6.808 37.9501 7.015L32.3184 9.315C31.1423 8.418 29.921 7.636 28.4961 7.061L27.6593 0.966004C27.6133 0.695104 27.4746 0.449486 27.2676 0.272673C27.0606 0.095859 26.7988 -0.000735481 26.5284 4.21698e-06H17.4816C16.9161 4.21698e-06 16.4412 0.414004 16.3507 0.966004L15.5139 7.061C14.089 7.636 12.8677 8.418 11.6916 9.315L6.05989 7.015C5.56231 6.808 4.95165 7.015 4.68024 7.521L0.156808 15.479C-0.137215 15.985 -0.00151151 16.606 0.428215 16.951L5.20044 20.7C5.10997 21.482 5.04212 22.241 5.04212 23C5.04212 23.759 5.10997 24.495 5.20044 25.231L0.428215 29.049C-0.00151151 29.394 -0.137215 30.015 0.156808 30.521L4.68024 38.479C4.95165 38.985 5.56231 39.169 6.05989 38.985L11.6916 36.662C12.8677 37.582 14.089 38.364 15.5139 38.939L16.3507 45.034C16.4412 45.586 16.9161 46 17.4816 46H26.5284C27.0939 46 27.5688 45.586 27.6593 45.034L28.4961 38.939C29.921 38.341 31.1423 37.582 32.3184 36.662L37.9501 38.985C38.4477 39.169 39.0583 38.985 39.3298 38.479L43.8532 30.521C44.1246 30.015 44.0115 29.394 43.5818 29.049L38.8096 25.231Z" fill="#D1D1D1"/>
</svg>
