<svg width="48" height="48" viewBox="0 0 48 48" fill="none" xmlns="http://www.w3.org/2000/svg">
<path fill-rule="evenodd" clip-rule="evenodd" d="M48 1.49934C47.9999 1.2775 47.9505 1.05846 47.8555 0.857983C47.7606 0.65751 47.6223 0.4806 47.4507 0.34C47.2791 0.1994 47.0785 0.0986089 46.8632 0.0448892C46.648 -0.00883054 46.4235 -0.0141417 46.206 0.0293384L31.5 2.96934L16.794 0.0293384C16.5999 -0.00945384 16.4001 -0.00945384 16.206 0.0293384L1.206 3.02934C0.866085 3.09728 0.560192 3.28085 0.34033 3.54884C0.120468 3.81683 0.000209346 4.1527 0 4.49934L0 46.4993C0.000133958 46.7212 0.0494705 46.9402 0.144455 47.1407C0.23944 47.3412 0.377708 47.5181 0.549298 47.6587C0.720888 47.7993 0.921528 47.9001 1.13676 47.9538C1.352 48.0075 1.57647 48.0128 1.794 47.9693L16.5 45.0293L31.206 47.9693C31.4001 48.008 31.5999 48.008 31.794 47.9693L46.794 44.9693C47.1339 44.9014 47.4398 44.7178 47.6597 44.4498C47.8795 44.1818 47.9998 43.846 48 43.4993V1.49934ZM15 42.2693V3.32934L16.5 3.02934L18 3.32934V42.2693L16.794 42.0293C16.5999 41.9904 16.4001 41.9904 16.206 42.0293L15 42.2693ZM30 44.6693V5.72934L31.206 5.96934C31.4001 6.00813 31.5999 6.00813 31.794 5.96934L33 5.72934V44.6693L31.5 44.9693L30 44.6693Z" fill="#D1D1D1"/>
</svg>
