<svg width="41" height="42" viewBox="0 0 41 42" fill="none" xmlns="http://www.w3.org/2000/svg">
<g clip-path="url(#clip0_423:2651)">
<path d="M0.991211 5.28589V36.9619C4.82173 37.0555 8.64402 37.3635 12.4402 37.8842C15.89 38.5307 19.26 39.5482 22.4914 40.9189C25.3592 39.7175 28.3238 38.762 31.3532 38.0628C34.4795 37.4343 37.6524 37.0661 40.8395 36.9619" stroke="#2E358F" stroke-width="2"/>
<path d="M22.4519 5.77185C22.0446 6.16377 21.7199 6.63333 21.4968 7.15284C21.2738 7.67234 21.157 8.23126 21.1534 8.79664C21.2029 11.3355 21.5598 13.8842 21.5994 16.4231C21.5423 18.7814 20.9455 21.0952 19.8548 23.1867C19.5277 23.7917 19.1709 24.3768 18.814 24.9619L17.7633 24.7834C17.5521 24.7632 17.3473 24.6997 17.1616 24.5968C16.976 24.494 16.8135 24.354 16.6842 24.1857C16.555 24.0173 16.4618 23.8241 16.4104 23.6181C16.359 23.4121 16.3505 23.1978 16.3855 22.9884C16.4915 22.6223 16.717 22.3023 17.026 22.0794C17.335 21.8565 17.7098 21.7436 18.0904 21.7586H18.477L17.6047 15.5999C17.439 14.2173 16.9645 12.8897 16.2164 11.7155C15.4683 10.5412 14.4656 9.55044 13.2828 8.81648C12.8613 8.54102 12.4207 8.29578 11.9645 8.08259V30.1487H17.8129C18.2894 32.2524 19.5703 34.0858 21.3814 35.2561C21.9067 35.7421 21.9067 35.6628 22.4519 36.1884C22.9674 35.7024 22.9674 35.7818 23.5125 35.2561C25.3341 34.0927 26.6235 32.2574 27.1009 30.1487H32.9493V8.06276C32.4952 8.27397 32.0578 8.5193 31.6408 8.79664C30.4496 9.52883 29.4393 10.5212 28.6857 11.6993C27.9321 12.8775 27.4547 14.211 27.2892 15.5999L26.4367 21.8181H26.8233C27.204 21.8031 27.5787 21.916 27.8877 22.1389C28.1968 22.3618 28.4223 22.6818 28.5283 23.0479C28.5632 23.2573 28.5548 23.4716 28.5034 23.6776C28.452 23.8836 28.3587 24.0768 28.2295 24.2452C28.1003 24.4135 27.9378 24.5535 27.7521 24.6563C27.5665 24.7592 27.3617 24.8227 27.1504 24.8429L26.1096 24.9619C25.7528 24.3768 25.3959 23.7917 25.1184 23.1867C24.0265 21.0962 23.4328 18.7813 23.3837 16.4231C23.3837 13.8842 23.7703 11.3355 23.8198 8.79664C23.8056 8.22657 23.6771 7.66514 23.4422 7.14559C23.2072 6.62604 22.8705 6.15892 22.4519 5.77185ZM13.719 11.2363C14.8503 12.3748 15.5898 13.8441 15.8304 15.4314L16.5341 20.5586C16.1022 20.735 15.7141 21.0041 15.3972 21.3468C15.0804 21.6895 14.8425 22.0975 14.7003 22.5421H13.7091L13.719 11.2363ZM31.1749 11.2363V22.5421H30.1837C30.0415 22.0975 29.8036 21.6895 29.4868 21.3468C29.1699 21.0041 28.7818 20.735 28.3498 20.5586L29.0834 15.4314C29.3185 13.8465 30.0509 12.3775 31.1749 11.2363ZM22.4519 21.5504C22.9227 22.894 23.5657 24.1707 24.365 25.3487C23.6292 25.5437 22.9651 25.9466 22.4519 26.509C21.9286 25.9625 21.2622 25.5742 20.5289 25.3884C21.3308 24.1963 21.977 22.9065 22.4519 21.5504ZM13.719 24.0495H14.7102C14.8988 24.596 15.2265 25.0837 15.6611 25.4646C16.0957 25.8455 16.6221 26.1064 17.1884 26.2214L18.0309 26.39C17.805 27.1124 17.688 27.8645 17.684 28.6214H13.719V24.0495ZM30.1936 24.0495H31.1848V28.6214H27.2198C27.2207 27.8641 27.1037 27.1113 26.8729 26.39L27.7155 26.2214C28.2763 26.1017 28.7965 25.8388 29.2256 25.4582C29.6547 25.0775 29.9779 24.5922 30.1638 24.0495H30.1936ZM19.6962 26.7371C20.188 26.7612 20.6532 26.9674 21.0013 27.3157C21.3494 27.664 21.5556 28.1295 21.5796 28.6214H19.3889C19.3902 27.981 19.4939 27.3448 19.6962 26.7371ZM25.1977 26.7371C25.4 27.3448 25.5037 27.981 25.505 28.6214H23.3242C23.348 28.1311 23.5528 27.667 23.8988 27.3189C24.2449 26.9709 24.7077 26.7636 25.1977 26.7371ZM19.5872 30.1487H21.5697V33.3619C20.6126 32.5048 19.9241 31.3888 19.5872 30.1487ZM23.3242 30.1487H25.3067C24.9667 31.3875 24.2787 32.5027 23.3242 33.3619V30.1487Z" fill="#2E3192"/>
<path d="M31.3037 2.16197C28.2696 2.85912 25.3064 3.83517 22.4518 5.07767C19.5934 3.83622 16.627 2.86022 13.59 2.16197C10.7259 1.59693 7.81579 1.29814 4.89673 1.26941V33.0049C7.81748 33.0392 10.7283 33.3513 13.59 33.9372C16.6254 34.6671 19.5907 35.6627 22.4518 36.9124C25.3091 35.6618 28.2712 34.6662 31.3037 33.9372C34.1621 33.3519 37.0696 33.0398 39.987 33.0049V1.26941C37.0713 1.29875 34.1645 1.59754 31.3037 2.16197V2.16197Z" stroke="#2E358F" stroke-width="2"/>
</g>
<defs>
<clipPath id="clip0_423:2651">
<rect width="41" height="42" fill="white"/>
</clipPath>
</defs>
</svg>
